<?xml version="1.0" standalone="no"?>
<!DOCTYPE svg PUBLIC "-//W3C//DTD SVG 20010904//EN"
 "http://www.w3.org/TR/2001/REC-SVG-20010904/DTD/svg10.dtd">
<svg version="1.0" xmlns="http://www.w3.org/2000/svg"
 width="512.000000pt" height="512.000000pt" viewBox="0 0 512.000000 512.000000"
 preserveAspectRatio="xMidYMid meet">

<g transform="translate(0.000000,512.000000) scale(0.100000,-0.100000)"
fill="#000000" stroke="none">
<path d="M1360 4954 c-14 -2 -59 -9 -100 -15 -41 -6 -118 -25 -170 -41 -433
-138 -754 -489 -845 -926 -16 -80 -47 -419 -67 -742 -16 -264 -16 -1066 0
-1330 19 -310 50 -659 66 -742 83 -433 405 -791 838 -932 194 -63 136 -61
1483 -61 1151 0 1235 1 1315 18 270 58 469 164 656 351 161 161 266 342 319
552 62 241 113 1093 101 1674 -8 387 -13 442 -40 483 -62 91 -193 93 -260 4
-21 -28 -21 -35 -21 -557 0 -290 -3 -531 -6 -534 -3 -4 -51 5 -105 18 -341 86
-708 72 -1042 -39 -117 -39 -290 -120 -392 -183 l-65 -40 -27 21 c-242 198
-500 367 -582 383 -102 19 -192 -82 -172 -191 10 -50 56 -98 141 -145 186
-103 387 -262 573 -455 256 -264 457 -590 576 -933 20 -57 36 -106 36 -108 0
-3 -507 -3 -1127 -2 l-1128 3 -78 22 c-363 103 -626 386 -686 738 -14 79 -49
539 -56 730 -3 83 -8 175 -11 207 l-5 56 88 21 c196 45 306 56 563 55 194 -1
272 -5 374 -21 170 -27 225 -13 267 68 37 74 15 165 -50 203 -44 25 -213 53
-419 68 -247 17 -465 1 -791 -59 l-34 -6 6 279 c9 362 42 863 68 1033 53 341
325 633 684 733 79 22 91 22 885 28 785 5 806 6 840 25 38 22 80 93 80 135 0
49 -42 113 -90 138 l-44 22 -761 -1 c-418 -1 -771 -3 -785 -5z m3025 -3073
c107 -23 223 -59 228 -69 4 -8 -4 -116 -29 -397 -18 -202 -43 -308 -101 -423
-67 -135 -197 -280 -322 -360 -71 -45 -186 -98 -233 -107 -37 -7 -37 -7 -48
37 -20 73 -90 257 -141 372 -98 216 -241 448 -394 636 -46 58 -85 108 -85 111
0 10 175 98 265 132 201 76 333 97 580 92 143 -2 212 -8 280 -24z"/>
<path d="M3930 4938 c-33 -17 -51 -35 -67 -68 -22 -43 -23 -52 -23 -377 l0
-333 -333 0 c-325 0 -334 -1 -377 -22 -48 -25 -90 -89 -90 -138 0 -49 42 -113
90 -137 43 -22 52 -23 377 -23 l333 0 0 -333 c0 -325 1 -334 23 -377 24 -48
88 -90 137 -90 49 0 113 42 138 90 21 43 22 52 22 377 l0 333 333 0 c325 0
334 1 377 23 48 24 90 88 90 137 0 49 -42 113 -90 138 -43 21 -52 22 -377 22
l-333 0 0 333 c0 325 -1 334 -22 377 -25 48 -89 90 -138 90 -14 0 -46 -10 -70
-22z"/>
<path d="M1320 4305 c-215 -49 -380 -217 -426 -435 -58 -274 110 -558 381
-643 149 -46 333 -22 460 61 170 111 260 274 260 472 0 198 -90 361 -259 472
-114 74 -282 103 -416 73z m190 -315 c148 -41 217 -232 131 -361 -146 -217
-476 -85 -437 175 21 136 167 225 306 186z"/>
</g>
</svg>
