<svg width="385" height="360" viewBox="0 0 385 360" fill="none" xmlns="http://www.w3.org/2000/svg">
<g clip-path="url(#clip0_197_2)">
<path d="M55.3003 100.609L56.9203 103.879L60.5303 104.409L57.9203 106.959L58.5403 110.559L55.3003 108.859L52.0703 110.559L52.6903 106.959L50.0703 104.409L53.6903 103.879L55.3003 100.609Z" fill="#EBEBEB"/>
<path d="M378.949 254.84L380.569 258.12L384.189 258.65L381.569 261.2L382.189 264.8L378.949 263.1L375.719 264.8L376.339 261.2L373.719 258.65L377.339 258.12L378.949 254.84Z" fill="#F5F5F5"/>
<path d="M314.849 349.93L316.459 353.2L320.079 353.73L317.459 356.28L318.079 359.88L314.849 358.18L311.609 359.88L312.229 356.28L309.609 353.73L313.229 353.2L314.849 349.93Z" fill="#F5F5F5"/>
<path d="M168.193 42.5102L168.793 43.7302L170.133 43.9202C170.473 43.9702 170.603 44.3802 170.363 44.6202L169.393 45.5702L169.623 46.9102C169.683 47.2402 169.333 47.5002 169.033 47.3402L167.833 46.7102L166.633 47.3402C166.333 47.5002 165.983 47.2402 166.043 46.9102L166.273 45.5702L165.303 44.6202C165.063 44.3802 165.193 43.9702 165.533 43.9202L166.873 43.7302L167.473 42.5102C167.623 42.2102 168.053 42.2102 168.203 42.5102H168.193Z" fill="#EBEBEB"/>
<path d="M3.0207 334.37L3.6207 335.59L4.9607 335.78C5.3007 335.83 5.4307 336.24 5.1907 336.48L4.2207 337.43L4.4507 338.77C4.5107 339.1 4.1607 339.36 3.8607 339.2L2.6607 338.57L1.4607 339.2C1.1607 339.36 0.810698 339.1 0.870698 338.77L1.1007 337.43L0.130698 336.48C-0.109302 336.24 0.0206984 335.83 0.360698 335.78L1.7007 335.59L2.3007 334.37C2.4507 334.07 2.8807 334.07 3.0307 334.37H3.0207Z" fill="#F5F5F5"/>
<path d="M30.0012 29.6586L30.6012 30.8786L31.9412 31.0686C32.2712 31.1186 32.4112 31.5286 32.1712 31.7686L31.2012 32.7186L31.4312 34.0586C31.4912 34.3886 31.1412 34.6486 30.8412 34.4886L29.6412 33.8586L28.4412 34.4886C28.1412 34.6486 27.7912 34.3886 27.8512 34.0586L28.0812 32.7186L27.1112 31.7686C26.8712 31.5286 27.0012 31.1186 27.3412 31.0686L28.6812 30.8786L29.2812 29.6586C29.4312 29.3586 29.8612 29.3586 30.0112 29.6586H30.0012Z" fill="#EBEBEB"/>
<path d="M28.3787 270.682C28.3787 271.412 27.7887 272.012 27.0487 272.012C26.3087 272.012 25.7188 271.422 25.7188 270.682C25.7188 269.942 26.3087 269.352 27.0487 269.352C27.7887 269.352 28.3787 269.942 28.3787 270.682Z" fill="#EBEBEB"/>
<path d="M217.922 104.248C217.922 104.978 217.332 105.578 216.592 105.578C215.852 105.578 215.262 104.988 215.262 104.248C215.262 103.508 215.852 102.918 216.592 102.918C217.332 102.918 217.922 103.508 217.922 104.248Z" fill="#EBEBEB"/>
<path d="M148.961 30.7597C148.961 31.4897 148.371 32.0897 147.631 32.0897C146.891 32.0897 146.301 31.4997 146.301 30.7597C146.301 30.0197 146.891 29.4297 147.631 29.4297C148.371 29.4297 148.961 30.0197 148.961 30.7597Z" fill="#F5F5F5"/>
<path d="M151.065 354.9C155.016 353.967 157.463 350.009 156.53 346.058C155.598 342.107 151.639 339.66 147.689 340.593C143.738 341.525 141.291 345.484 142.224 349.435C143.156 353.385 147.115 355.832 151.065 354.9Z" fill="#F0F0F0"/>
<path d="M146.851 343.449C145.291 343.449 143.841 343.949 142.661 344.809C142.271 345.709 142.051 346.699 142.051 347.739C142.051 351.799 145.341 355.079 149.401 355.079C150.771 355.079 152.061 354.699 153.161 354.039C153.161 354.039 153.161 354.036 153.161 354.029C153.711 353.009 154.021 351.849 154.021 350.609C154.021 346.659 150.811 343.449 146.851 343.449Z" fill="#E6E6E6"/>
<path d="M89.9303 220.013H29.0703V192.543L89.9203 120.203H119.04V194.103H134.13V220.023H119.04V242.493H89.9203V220.023L89.9303 220.013ZM89.9303 194.093V156.253L57.7703 194.093H89.9303Z" fill="#60A7F9"/>
<path d="M144.551 181.871C144.551 159.021 148.661 143.021 156.891 133.891C165.121 124.761 177.651 120.191 194.491 120.191C202.581 120.191 209.221 121.191 214.421 123.181C219.611 125.181 223.851 127.771 227.131 130.971C230.411 134.171 232.991 137.531 234.881 141.061C236.771 144.591 238.281 148.701 239.431 153.401C241.671 162.371 242.791 171.721 242.791 181.451C242.791 203.271 239.101 219.231 231.721 229.351C224.341 239.471 211.631 244.521 193.581 244.521C183.461 244.521 175.291 242.911 169.061 239.681C162.831 236.451 157.711 231.731 153.721 225.491C150.821 221.061 148.571 215.011 146.951 207.321C145.341 199.641 144.531 191.151 144.531 181.851L144.551 181.871ZM177.681 181.951C177.681 197.261 179.031 207.721 181.741 213.321C184.451 218.921 188.371 221.731 193.511 221.731C196.901 221.731 199.841 220.541 202.331 218.161C204.821 215.781 206.651 212.021 207.831 206.881C209.011 201.741 209.591 193.731 209.591 182.851C209.591 166.891 208.241 156.161 205.531 150.661C202.821 145.161 198.761 142.421 193.351 142.421C187.941 142.421 183.841 145.221 181.381 150.831C178.921 156.441 177.691 166.811 177.691 181.951H177.681Z" fill="#60A7F9"/>
<path d="M313.991 220.013H253.141V192.543L313.991 120.203H343.111V194.103H358.201V220.023H343.111V242.493H313.991V220.023V220.013ZM313.991 194.093V156.253L281.831 194.093H313.991Z" fill="#60A7F9"/>
<g opacity="0.3">
<path d="M143.201 77.9794C143.201 79.0094 142.361 79.8494 141.331 79.8494C140.301 79.8494 139.461 79.0094 139.461 77.9794C139.461 76.9494 140.301 76.1094 141.331 76.1094C142.361 76.1094 143.201 76.9494 143.201 77.9794Z" fill="#407BFF"/>
<path d="M15.2106 149.812C15.9396 149.812 16.5306 149.221 16.5306 148.492C16.5306 147.763 15.9396 147.172 15.2106 147.172C14.4816 147.172 13.8906 147.763 13.8906 148.492C13.8906 149.221 14.4816 149.812 15.2106 149.812Z" fill="#407BFF"/>
<path d="M233.3 342.581C234.344 342.581 235.19 341.735 235.19 340.691C235.19 339.647 234.344 338.801 233.3 338.801C232.256 338.801 231.41 339.647 231.41 340.691C231.41 341.735 232.256 342.581 233.3 342.581Z" fill="#407BFF"/>
<path d="M278.75 265.679C279.479 265.679 280.07 265.088 280.07 264.359C280.07 263.63 279.479 263.039 278.75 263.039C278.021 263.039 277.43 263.63 277.43 264.359C277.43 265.088 278.021 265.679 278.75 265.679Z" fill="#407BFF"/>
<path d="M366.421 27.9802C366.421 28.7102 365.831 29.3002 365.101 29.3002C364.371 29.3002 363.781 28.7102 363.781 27.9802C363.781 27.2502 364.371 26.6602 365.101 26.6602C365.831 26.6602 366.421 27.2502 366.421 27.9802Z" fill="#407BFF"/>
<path d="M114.999 1.32C114.999 2.05 114.409 2.64 113.679 2.64C112.949 2.64 112.359 2.05 112.359 1.32C112.359 0.59 112.949 0 113.679 0C114.409 0 114.999 0.59 114.999 1.32Z" fill="#407BFF"/>
<path d="M219.941 70.6205C220.67 70.6205 221.261 70.0295 221.261 69.3005C221.261 68.5715 220.67 67.9805 219.941 67.9805C219.212 67.9805 218.621 68.5715 218.621 69.3005C218.621 70.0295 219.212 70.6205 219.941 70.6205Z" fill="#407BFF"/>
</g>
<path d="M83.4803 70.6286C95.5809 70.6286 105.39 60.8192 105.39 48.7186C105.39 36.618 95.5809 26.8086 83.4803 26.8086C71.3798 26.8086 61.5703 36.618 61.5703 48.7186C61.5703 60.8192 71.3798 70.6286 83.4803 70.6286Z" fill="#407BFF"/>
<path opacity="0.7" d="M83.4803 70.6286C95.5809 70.6286 105.39 60.8192 105.39 48.7186C105.39 36.618 95.5809 26.8086 83.4803 26.8086C71.3798 26.8086 61.5703 36.618 61.5703 48.7186C61.5703 60.8192 71.3798 70.6286 83.4803 70.6286Z" fill="white"/>
<path opacity="0.2" d="M75.9303 32.1875C72.8603 32.1875 69.9403 32.8175 67.2903 33.9575C63.7403 37.8475 61.5703 43.0375 61.5703 48.7175C61.5703 60.8175 71.3803 70.6175 83.4703 70.6175C86.5503 70.6175 89.4903 69.9875 92.1503 68.8375C95.6803 64.9375 97.8303 59.7675 97.8303 54.0975C97.8303 41.9875 88.0203 32.1875 75.9203 32.1875H75.9303Z" fill="#407BFF"/>
<path opacity="0.2" d="M73.75 37.9805C73.75 39.0905 72.85 39.9805 71.75 39.9805C70.65 39.9805 69.75 39.0805 69.75 37.9805C69.75 36.8805 70.65 35.9805 71.75 35.9805C72.85 35.9805 73.75 36.8805 73.75 37.9805Z" fill="#407BFF"/>
<path opacity="0.2" d="M97.3086 35.9805C97.3086 37.0905 96.4086 37.9805 95.3086 37.9805C94.2086 37.9805 93.3086 37.0805 93.3086 35.9805C93.3086 34.8805 94.2086 33.9805 95.3086 33.9805C96.4086 33.9805 97.3086 34.8805 97.3086 35.9805Z" fill="#407BFF"/>
<path opacity="0.2" d="M93.31 50.2605C93.31 52.0705 91.84 53.5405 90.03 53.5405C88.22 53.5405 86.75 52.0705 86.75 50.2605C86.75 48.4505 88.22 46.9805 90.03 46.9805C91.84 46.9805 93.31 48.4505 93.31 50.2605Z" fill="#407BFF"/>
<path opacity="0.2" d="M82.8889 59.6105C82.8889 62.0305 80.9289 63.9905 78.5089 63.9905C76.0889 63.9905 74.1289 62.0305 74.1289 59.6105C74.1289 57.1905 76.0889 55.2305 78.5089 55.2305C80.9289 55.2305 82.8889 57.1905 82.8889 59.6105Z" fill="#407BFF"/>
<path d="M343.154 313.002C345.593 302.665 339.192 292.308 328.855 289.869C318.519 287.429 308.162 293.831 305.722 304.167C303.282 314.503 309.684 324.861 320.02 327.3C330.357 329.74 340.714 323.338 343.154 313.002Z" fill="#407BFF"/>
<path opacity="0.3" d="M343.154 313.002C345.593 302.665 339.192 292.308 328.855 289.869C318.519 287.429 308.162 293.831 305.722 304.167C303.282 314.503 309.684 324.861 320.02 327.3C330.357 329.74 340.714 323.338 343.154 313.002Z" fill="white"/>
<path opacity="0.4" d="M336.579 293.701C334.829 293.171 332.969 292.891 331.039 292.891C320.419 292.891 311.809 301.501 311.809 312.121C311.809 318.141 314.569 323.501 318.899 327.031C320.649 327.561 322.509 327.841 324.439 327.841C335.059 327.841 343.669 319.231 343.669 308.611C343.669 302.591 340.909 297.221 336.579 293.701Z" fill="#407BFF"/>
<path d="M306.08 314.31C285.55 323.97 300.86 331.42 329.79 321.02C356.57 311.39 366.76 299.25 342.84 303.01C344.07 308.12 310.53 321.19 306.08 314.3V314.31Z" fill="#407BFF"/>
<path opacity="0.2" d="M336.348 120.188C309.458 138.358 274.648 162.317 265.038 219.997H262.988C272.338 163.017 305.878 138.427 332.778 120.188H336.348Z" fill="black"/>
<path d="M197.27 300.63C180.3 300.63 163.46 292.97 155.28 280.44C150.23 272.7 144.36 256.49 161.84 234.86L163.4 236.12C151.04 251.42 148.75 266.77 156.96 279.35C166.95 294.66 190.56 302.36 210.69 296.88C231.32 291.27 243.84 273.32 245.05 247.65C249.18 159.84 295.83 132.8 329.9 113.05C351.06 100.78 366.35 91.91 362.99 73.21C362.52 70.62 361.49 68.82 359.83 67.73C355.48 64.86 346.98 66.84 337.14 69.14C317.83 73.64 291.39 79.8 275.64 53.01L277.36 52C292.37 77.52 316.94 71.8 336.68 67.2C346.97 64.8 355.86 62.73 360.93 66.07C363.07 67.48 364.39 69.71 364.96 72.87C368.57 92.95 351.95 102.59 330.9 114.79C297.24 134.31 251.13 161.04 247.05 247.76C245.8 274.36 232.74 292.97 211.22 298.82C206.68 300.05 201.97 300.64 197.28 300.64L197.27 300.63Z" fill="#407BFF"/>
<path opacity="0.2" d="M197.27 300.63C180.3 300.63 163.46 292.97 155.28 280.44C150.23 272.7 144.36 256.49 161.84 234.86L163.4 236.12C151.04 251.42 148.75 266.77 156.96 279.35C166.95 294.66 190.56 302.36 210.69 296.88C231.32 291.27 243.84 273.32 245.05 247.65C249.18 159.84 295.83 132.8 329.9 113.05C351.06 100.78 366.35 91.91 362.99 73.21C362.52 70.62 361.49 68.82 359.83 67.73C355.48 64.86 346.98 66.84 337.14 69.14C317.83 73.64 291.39 79.8 275.64 53.01L277.36 52C292.37 77.52 316.94 71.8 336.68 67.2C346.97 64.8 355.86 62.73 360.93 66.07C363.07 67.48 364.39 69.71 364.96 72.87C368.57 92.95 351.95 102.59 330.9 114.79C297.24 134.31 251.13 161.04 247.05 247.76C245.8 274.36 232.74 292.97 211.22 298.82C206.68 300.05 201.97 300.64 197.28 300.64L197.27 300.63Z" fill="white"/>
<path d="M255.01 29.3093C261.87 29.1893 268.59 31.4393 268.59 31.4393C268.59 31.4393 279.55 50.2093 280.89 54.5093C280.43 58.7493 273.27 65.6993 273.27 65.6993L255 29.3093H255.01Z" fill="#407BFF"/>
<path opacity="0.3" d="M255.01 29.3093C261.87 29.1893 268.59 31.4393 268.59 31.4393C268.59 31.4393 279.55 50.2093 280.89 54.5093C280.43 58.7493 273.27 65.6993 273.27 65.6993L255 29.3093H255.01Z" fill="white"/>
<path d="M287.589 120.49C283.449 115.24 279.389 109.9 276.029 104.11C275.189 102.66 274.389 101.19 273.639 99.6895C273.209 98.8395 272.799 97.9795 272.399 97.1195C272.049 96.3695 271.269 95.2595 271.199 94.4395C269.999 81.7695 274.339 72.4395 270.169 62.2695L253.699 68.7095C253.699 68.7095 255.099 86.8295 258.299 97.6695C260.279 104.4 264.769 110.22 269.099 115.61C270.449 117.3 271.759 119.02 273.109 120.71C274.389 122.31 275.819 123.77 277.099 125.36C279.049 127.77 279.689 130.08 278.209 132.92C278.129 133.07 278.049 133.22 277.959 133.37C277.539 134.11 279.509 134.95 280.739 133.39C282.779 130.81 282.459 130.97 284.199 128.77C285.259 127.43 286.469 125.99 287.519 124.74C288.539 123.52 288.569 121.75 287.579 120.49H287.589Z" fill="#407BFF"/>
<path opacity="0.7" d="M287.589 120.49C283.449 115.24 279.389 109.9 276.029 104.11C275.189 102.66 274.389 101.19 273.639 99.6895C273.209 98.8395 272.799 97.9795 272.399 97.1195C272.049 96.3695 271.269 95.2595 271.199 94.4395C269.999 81.7695 274.339 72.4395 270.169 62.2695L253.699 68.7095C253.699 68.7095 255.099 86.8295 258.299 97.6695C260.279 104.4 264.769 110.22 269.099 115.61C270.449 117.3 271.759 119.02 273.109 120.71C274.389 122.31 275.819 123.77 277.099 125.36C279.049 127.77 279.689 130.08 278.209 132.92C278.129 133.07 278.049 133.22 277.959 133.37C277.539 134.11 279.509 134.95 280.739 133.39C282.779 130.81 282.459 130.97 284.199 128.77C285.259 127.43 286.469 125.99 287.519 124.74C288.539 123.52 288.569 121.75 287.579 120.49H287.589Z" fill="white"/>
<path opacity="0.3" d="M283.558 115.281C281.348 117.951 276.868 121.401 274.898 122.801C275.328 123.281 275.758 123.771 276.178 124.261C280.248 121.601 283.458 118.161 284.678 116.761C284.298 116.271 283.928 115.781 283.558 115.281Z" fill="#407BFF"/>
<path opacity="0.3" d="M287.581 120.498C287.541 120.448 287.501 120.408 287.461 120.348C286.771 121.068 286.281 122.228 286.201 123.518C286.131 124.408 286.281 125.228 286.581 125.868C286.911 125.478 287.221 125.098 287.531 124.738C288.561 123.518 288.571 121.748 287.581 120.498Z" fill="#407BFF"/>
<path d="M251.09 41.311C249.37 43.821 247.34 46.291 244.71 48.501C243.41 49.611 241.92 50.621 240.29 51.481C239.47 51.901 238.6 52.261 237.71 52.561L237.04 52.781L236.82 52.851C236.66 52.901 236.5 52.941 236.34 52.981C236.04 53.051 235.73 53.091 235.47 53.121C234.39 53.201 233.6 53.051 232.96 52.891C231.68 52.541 230.83 52.081 230.02 51.631C229.22 51.171 228.53 50.701 227.87 50.221C226.57 49.231 225.39 48.231 224.29 47.171C222.08 45.061 220.12 42.871 218.3 40.431C217.47 39.321 217.7 37.751 218.81 36.921C219.67 36.281 220.8 36.271 221.65 36.811L221.73 36.861C224.09 38.361 226.47 39.941 228.79 41.351C229.96 42.041 231.11 42.741 232.24 43.281C232.79 43.561 233.34 43.821 233.83 44.001C234.31 44.191 234.78 44.291 234.91 44.271C234.96 44.271 234.91 44.201 234.53 44.211C234.44 44.211 234.31 44.231 234.19 44.251C234.12 44.261 234.04 44.281 233.97 44.311C233.9 44.331 234 44.291 234 44.291L234.33 44.121C234.77 43.901 235.19 43.621 235.62 43.331C236.48 42.751 237.29 42.021 238.12 41.211C239.77 39.581 241.35 37.541 243.02 35.421L243.04 35.391C244.75 33.221 247.9 32.851 250.07 34.571C252.15 36.211 252.56 39.181 251.09 41.331V41.311Z" fill="#407BFF"/>
<path opacity="0.7" d="M251.09 41.311C249.37 43.821 247.34 46.291 244.71 48.501C243.41 49.611 241.92 50.621 240.29 51.481C239.47 51.901 238.6 52.261 237.71 52.561L237.04 52.781L236.82 52.851C236.66 52.901 236.5 52.941 236.34 52.981C236.04 53.051 235.73 53.091 235.47 53.121C234.39 53.201 233.6 53.051 232.96 52.891C231.68 52.541 230.83 52.081 230.02 51.631C229.22 51.171 228.53 50.701 227.87 50.221C226.57 49.231 225.39 48.231 224.29 47.171C222.08 45.061 220.12 42.871 218.3 40.431C217.47 39.321 217.7 37.751 218.81 36.921C219.67 36.281 220.8 36.271 221.65 36.811L221.73 36.861C224.09 38.361 226.47 39.941 228.79 41.351C229.96 42.041 231.11 42.741 232.24 43.281C232.79 43.561 233.34 43.821 233.83 44.001C234.31 44.191 234.78 44.291 234.91 44.271C234.96 44.271 234.91 44.201 234.53 44.211C234.44 44.211 234.31 44.231 234.19 44.251C234.12 44.261 234.04 44.281 233.97 44.311C233.9 44.331 234 44.291 234 44.291L234.33 44.121C234.77 43.901 235.19 43.621 235.62 43.331C236.48 42.751 237.29 42.021 238.12 41.211C239.77 39.581 241.35 37.541 243.02 35.421L243.04 35.391C244.75 33.221 247.9 32.851 250.07 34.571C252.15 36.211 252.56 39.181 251.09 41.331V41.311Z" fill="white"/>
<path d="M214.53 34.7797L215.7 36.7497C215.7 36.7497 216.6 39.3697 218.39 39.8497L223.24 38.2797L223 37.8697C222.38 36.9197 222.45 35.0997 222.66 33.5797C222.88 32.0597 222.09 32.0097 221.51 32.3797C221.17 32.5997 220.94 33.2897 220.66 34.0397C220.42 33.7097 220.17 33.3897 219.88 33.1097L218.4 31.6297C217.76 30.9897 216.73 30.9597 216.06 31.5597L214.86 32.6297C214.25 33.1697 214.11 34.0797 214.53 34.7797Z" fill="#407BFF"/>
<path opacity="0.7" d="M214.53 34.7797L215.7 36.7497C215.7 36.7497 216.6 39.3697 218.39 39.8497L223.24 38.2797L223 37.8697C222.38 36.9197 222.45 35.0997 222.66 33.5797C222.88 32.0597 222.09 32.0097 221.51 32.3797C221.17 32.5997 220.94 33.2897 220.66 34.0397C220.42 33.7097 220.17 33.3897 219.88 33.1097L218.4 31.6297C217.76 30.9897 216.73 30.9597 216.06 31.5597L214.86 32.6297C214.25 33.1697 214.11 34.0797 214.53 34.7797Z" fill="white"/>
<path d="M259.919 27.5781C255.269 28.7081 248.879 31.3581 244.569 34.0481C243.039 34.9981 242.279 36.8081 242.639 38.5681C244.559 48.0081 248.949 60.6481 253.689 68.6981L275.799 59.5481C275.949 55.6481 270.579 43.0281 265.119 30.8281C264.139 28.6381 262.259 27.0081 259.919 27.5681V27.5781Z" fill="#407BFF"/>
<path opacity="0.8" d="M259.919 27.5781C255.269 28.7081 248.879 31.3581 244.569 34.0481C243.039 34.9981 242.279 36.8081 242.639 38.5681C244.559 48.0081 248.949 60.6481 253.689 68.6981L275.799 59.5481C275.949 55.6481 270.579 43.0281 265.119 30.8281C264.139 28.6381 262.259 27.0081 259.919 27.5681V27.5781Z" fill="white"/>
<path opacity="0.3" d="M268.538 38.5677L264.148 37.0977C265.128 39.6677 268.678 42.9177 271.178 44.8277C270.358 42.8177 269.468 40.7277 268.538 38.5677Z" fill="#407BFF"/>
<path d="M258.471 17.6788C256.651 14.1988 252.701 12.4488 247.951 12.8388C243.951 13.1688 240.411 17.2588 240.831 19.4588C241.251 21.6688 244.611 22.5988 245.221 23.3688L242.451 25.3788C241.071 26.3788 240.801 28.3288 241.851 29.6688C243.021 31.1488 244.551 32.6988 245.451 33.7888C253.111 33.5888 258.781 30.6688 260.821 27.8488C260.091 24.2688 260.281 21.1388 258.461 17.6688L258.471 17.6788Z" fill="#407BFF"/>
<path opacity="0.8" d="M258.471 17.6788C256.651 14.1988 252.701 12.4488 247.951 12.8388C243.951 13.1688 240.411 17.2588 240.831 19.4588C241.251 21.6688 244.611 22.5988 245.221 23.3688L242.451 25.3788C241.071 26.3788 240.801 28.3288 241.851 29.6688C243.021 31.1488 244.551 32.6988 245.451 33.7888C253.111 33.5888 258.781 30.6688 260.821 27.8488C260.091 24.2688 260.281 21.1388 258.461 17.6688L258.471 17.6788Z" fill="white"/>
<path d="M254.709 19.8402C256.229 23.7402 254.309 28.1302 250.409 29.6502C246.509 31.1702 242.119 29.2502 240.599 25.3502C239.079 21.4502 240.999 17.0602 244.899 15.5402C248.799 14.0202 253.189 15.9402 254.709 19.8402Z" fill="#263238"/>
<path d="M319.641 109.957C319.531 106.667 319.391 106.997 319.291 104.197C319.231 102.497 319.221 100.607 319.211 98.9769C319.201 97.3869 318.071 96.0169 316.511 95.6969C315.181 95.4269 313.861 95.1769 312.531 94.8869C310.801 94.5169 309.101 94.1269 307.401 93.6269C306.091 93.2469 304.781 92.8269 303.501 92.3569C302.121 91.8569 300.761 91.3169 299.411 90.7369C297.831 90.0569 296.281 89.3369 294.731 88.5969C293.001 87.7669 291.291 86.9169 289.591 86.0469C283.011 75.1469 282.871 67.9769 275.801 59.5469L260.641 66.4069C260.641 66.4069 271.781 86.1669 279.361 94.5469C283.731 99.3669 290.581 101.547 296.691 103.117C301.101 104.257 305.571 105.127 310.041 105.947C311.781 106.267 313.671 106.387 315.171 107.427C316.351 108.247 316.961 109.527 317.311 110.877C317.381 111.157 317.441 111.437 317.491 111.717C317.651 112.557 319.691 111.927 319.621 109.937L319.641 109.957Z" fill="#407BFF"/>
<path opacity="0.8" d="M319.641 109.957C319.531 106.667 319.391 106.997 319.291 104.197C319.231 102.497 319.221 100.607 319.211 98.9769C319.201 97.3869 318.071 96.0169 316.511 95.6969C315.181 95.4269 313.861 95.1769 312.531 94.8869C310.801 94.5169 309.101 94.1269 307.401 93.6269C306.091 93.2469 304.781 92.8269 303.501 92.3569C302.121 91.8569 300.761 91.3169 299.411 90.7369C297.831 90.0569 296.281 89.3369 294.731 88.5969C293.001 87.7669 291.291 86.9169 289.591 86.0469C283.011 75.1469 282.871 67.9769 275.801 59.5469L260.641 66.4069C260.641 66.4069 271.781 86.1669 279.361 94.5469C283.731 99.3669 290.581 101.547 296.691 103.117C301.101 104.257 305.571 105.127 310.041 105.947C311.781 106.267 313.671 106.387 315.171 107.427C316.351 108.247 316.961 109.527 317.311 110.877C317.381 111.157 317.441 111.437 317.491 111.717C317.651 112.557 319.691 111.927 319.621 109.937L319.641 109.957Z" fill="white"/>
<path opacity="0.3" d="M311.949 94.7577C311.349 94.6277 310.749 94.4977 310.139 94.3477C310.189 97.7977 308.569 103.768 307.969 105.568C308.599 105.688 309.239 105.808 309.869 105.928C311.629 101.178 311.899 96.1577 311.939 94.7477L311.949 94.7577Z" fill="#407BFF"/>
<path opacity="0.3" d="M319.21 98.9661C319.2 97.3661 318.08 96.0061 316.52 95.6861C316.21 95.6261 315.88 95.5561 315.57 95.4961C315.64 96.4361 316.22 97.5261 317.2 98.3961C317.84 98.9761 318.57 99.3561 319.23 99.5361C319.23 99.3361 319.23 99.1461 319.22 98.9661H319.21Z" fill="#407BFF"/>
<path d="M253.29 19.9007C253.69 21.4207 252 23.0107 250.64 21.7007C249.54 20.6407 247.88 18.8507 246.52 18.0107C245.13 17.1407 246.98 15.6207 249.17 16.2107C251.21 16.7607 252.88 18.3907 253.29 19.9007Z" fill="white"/>
<path d="M253.409 68.2189C252.709 68.4789 253.989 69.6789 253.989 69.6789C253.989 69.6789 267.959 64.8889 276.479 59.9589C276.549 58.9289 275.799 58.3789 275.799 58.3789C275.799 58.3789 265.429 63.7789 253.399 68.2189H253.409Z" fill="#407BFF"/>
<path opacity="0.5" d="M253.409 68.2189C252.709 68.4789 253.989 69.6789 253.989 69.6789C253.989 69.6789 267.959 64.8889 276.479 59.9589C276.549 58.9289 275.799 58.3789 275.799 58.3789C275.799 58.3789 265.429 63.7789 253.399 68.2189H253.409Z" fill="white"/>
<path d="M263.708 26.9177C266.468 28.3077 269.058 29.7877 271.658 31.4177C272.948 32.2277 274.238 33.0677 275.498 33.9677C276.778 34.8477 278.028 35.7777 279.298 36.8277L279.768 37.2177L280.358 37.7477C280.778 38.1177 281.088 38.4577 281.398 38.7977C281.718 39.1477 281.988 39.4877 282.248 39.8277C282.518 40.1677 282.778 40.5077 283.018 40.8377C284.008 42.1677 284.818 43.5177 285.608 44.8577C287.148 47.5777 288.478 50.2877 289.578 53.2077C290.068 54.5077 289.408 55.9577 288.108 56.4477C287.128 56.8177 286.068 56.5377 285.388 55.8177L285.338 55.7677C283.328 53.6377 281.398 51.3977 279.458 49.3077C277.558 47.2277 275.548 45.0977 273.918 44.1677C271.648 42.7477 269.118 41.3477 266.608 39.9577L259.048 35.7577H259.028C256.608 34.4077 255.738 31.3677 257.078 28.9477C258.388 26.5977 261.318 25.7077 263.708 26.9077V26.9177Z" fill="#407BFF"/>
<path opacity="0.8" d="M263.708 26.9177C266.468 28.3077 269.058 29.7877 271.658 31.4177C272.948 32.2277 274.238 33.0677 275.498 33.9677C276.778 34.8477 278.028 35.7777 279.298 36.8277L279.768 37.2177L280.358 37.7477C280.778 38.1177 281.088 38.4577 281.398 38.7977C281.718 39.1477 281.988 39.4877 282.248 39.8277C282.518 40.1677 282.778 40.5077 283.018 40.8377C284.008 42.1677 284.818 43.5177 285.608 44.8577C287.148 47.5777 288.478 50.2877 289.578 53.2077C290.068 54.5077 289.408 55.9577 288.108 56.4477C287.128 56.8177 286.068 56.5377 285.388 55.8177L285.338 55.7677C283.328 53.6377 281.398 51.3977 279.458 49.3077C277.558 47.2277 275.548 45.0977 273.918 44.1677C271.648 42.7477 269.118 41.3477 266.608 39.9577L259.048 35.7577H259.028C256.608 34.4077 255.738 31.3677 257.078 28.9477C258.388 26.5977 261.318 25.7077 263.708 26.9077V26.9177Z" fill="white"/>
<path d="M291.98 58.0983L291.13 55.9683C291.13 55.9683 290.66 53.2483 288.96 52.4883L283.92 53.2783L284.1 53.7183C284.57 54.7483 284.21 56.5483 283.76 58.0083C283.31 59.4783 284.08 59.6483 284.71 59.3683C285.08 59.2083 285.42 58.5583 285.81 57.8583C285.99 58.2183 286.2 58.5783 286.44 58.9083L287.67 60.5983C288.2 61.3283 289.21 61.5183 289.97 61.0283L291.32 60.1583C292.01 59.7183 292.29 58.8483 291.99 58.0883L291.98 58.0983Z" fill="#407BFF"/>
<path opacity="0.8" d="M291.98 58.0983L291.13 55.9683C291.13 55.9683 290.66 53.2483 288.96 52.4883L283.92 53.2783L284.1 53.7183C284.57 54.7483 284.21 56.5483 283.76 58.0083C283.31 59.4783 284.08 59.6483 284.71 59.3683C285.08 59.2083 285.42 58.5583 285.81 57.8583C285.99 58.2183 286.2 58.5783 286.44 58.9083L287.67 60.5983C288.2 61.3283 289.21 61.5183 289.97 61.0283L291.32 60.1583C292.01 59.7183 292.29 58.8483 291.99 58.0883L291.98 58.0983Z" fill="white"/>
<path opacity="0.3" d="M259.48 38.418L258.26 38.518L250.77 56.598C251.21 56.628 251.61 56.598 251.99 56.498C251.99 56.498 261.75 52.858 264.7 51.528C262.71 47.408 259.47 38.418 259.47 38.418H259.48Z" fill="#407BFF"/>
<path d="M245.819 43.1595C246.239 46.4195 248.679 53.3395 250.779 56.5995C254.439 55.3395 260.539 52.9595 263.489 51.6295C261.499 47.5095 259.409 41.8295 258.259 38.5195C255.109 38.7295 248.249 41.3195 245.809 43.1695L245.819 43.1595Z" fill="white"/>
<path opacity="0.3" d="M253.249 47.0693C252.839 48.4293 251.399 49.2093 250.039 48.7993C248.679 48.3893 247.899 46.9493 248.309 45.5893C248.719 44.2293 250.159 43.4493 251.519 43.8593C252.879 44.2693 253.659 45.7093 253.249 47.0693Z" fill="#407BFF"/>
<path opacity="0.6" d="M255.158 43.6273C255.028 44.0773 254.558 44.3273 254.108 44.1973C253.658 44.0673 253.408 43.5973 253.538 43.1473C253.668 42.6973 254.138 42.4473 254.588 42.5773C255.038 42.7073 255.288 43.1773 255.158 43.6273Z" fill="#407BFF"/>
<path opacity="0.6" d="M257.389 42.7562C257.259 43.2062 256.789 43.4562 256.339 43.3262C255.889 43.1962 255.639 42.7262 255.769 42.2762C255.899 41.8262 256.379 41.5762 256.819 41.7062C257.269 41.8362 257.519 42.3062 257.389 42.7562Z" fill="#407BFF"/>
<path opacity="0.5" d="M260.54 50.5466L251.29 54.1966L250.73 52.3766L259.98 48.7266L260.54 50.5466Z" fill="#407BFF"/>
<path opacity="0.2" d="M209.509 189.531C209.309 197.071 208.749 202.861 207.829 206.881C206.649 212.021 204.819 215.781 202.329 218.161C199.849 220.541 196.909 221.731 193.519 221.731C188.379 221.731 184.449 218.931 181.749 213.321C181.309 212.411 180.909 211.371 180.539 210.211C174.829 215.121 169.509 220.481 164.619 226.241L159.309 232.501C162.179 235.411 165.439 237.801 169.079 239.691C175.309 242.911 183.479 244.531 193.599 244.531C195.379 244.531 197.099 244.481 198.769 244.381C204.889 235.321 209.959 225.581 213.869 215.361L228.719 176.641L209.509 189.531Z" fill="black"/>
<path d="M75.6406 242.321C81.2406 247.921 93.1406 259.821 93.1406 259.821L142.151 213.651C125.281 207.241 92.4106 225.551 75.6406 242.321Z" fill="#263238"/>
<path d="M136.672 303.35C131.072 297.75 119.172 285.85 119.172 285.85L165.342 236.84C171.752 253.71 153.442 286.58 136.672 303.35Z" fill="#263238"/>
<path d="M203.652 193.06L222.742 156.25L185.932 175.34C174.102 181.47 163.192 189.22 153.492 198.35L90.7422 257.42L121.572 288.25L180.642 225.5C189.772 215.8 197.512 204.88 203.652 193.06Z" fill="#407BFF"/>
<path opacity="0.6" d="M203.652 193.06L222.742 156.25L185.932 175.34C174.102 181.47 163.192 189.22 153.492 198.35L90.7422 257.42L121.572 288.25L180.642 225.5C189.772 215.8 197.512 204.88 203.652 193.06Z" fill="white"/>
<path d="M164.451 227.441C171.575 227.441 177.351 221.665 177.351 214.541C177.351 207.416 171.575 201.641 164.451 201.641C157.326 201.641 151.551 207.416 151.551 214.541C151.551 221.665 157.326 227.441 164.451 227.441Z" fill="white"/>
<path d="M164.45 222.83C169.029 222.83 172.74 219.118 172.74 214.54C172.74 209.962 169.029 206.25 164.45 206.25C159.872 206.25 156.16 209.962 156.16 214.54C156.16 219.118 159.872 222.83 164.45 222.83Z" fill="#407BFF"/>
<path opacity="0.3" d="M131.989 277.18L101.809 247L126.519 223.73L155.259 252.47L131.989 277.18Z" fill="#407BFF"/>
<path d="M82.4704 269.98C59.8704 271.82 52.3804 286.29 49.8204 305.52C48.5204 315.33 47.9404 325.25 39.7004 331C37.4104 332.59 38.5504 336.15 41.3304 336.06C71.6704 335.11 85.8204 320.26 87.6004 314.04C86.9904 317.97 86.1004 321.08 85.1104 323.51C84.0904 326.02 86.8504 328.34 89.1404 326.9C97.6604 321.56 108.34 311.74 109.05 295.82C102.75 286.97 82.4704 269.98 82.4704 269.98Z" fill="#407BFF"/>
<path opacity="0.2" d="M82.4704 269.98C59.8704 271.82 52.3804 286.29 49.8204 305.52C48.5204 315.33 47.9404 325.25 39.7004 331C37.4104 332.59 38.5504 336.15 41.3304 336.06C71.6704 335.11 85.8204 320.26 87.6004 314.04C86.9904 317.97 86.1004 321.08 85.1104 323.51C84.0904 326.02 86.8504 328.34 89.1404 326.9C97.6604 321.56 108.34 311.74 109.05 295.82C102.75 286.97 82.4704 269.98 82.4704 269.98Z" fill="white"/>
<path d="M112.522 302.659L76.332 266.459L95.612 262.289L116.702 283.379L112.522 302.659Z" fill="#407BFF"/>
</g>
<defs>
<clipPath id="clip0_197_2">
<rect width="384.19" height="359.88" fill="white"/>
</clipPath>
</defs>
</svg>
